<svg xmlns="http://www.w3.org/2000/svg" viewBox="0 0 512 512"><rect width="462" height="315" x="50" y="123.5" fill="#8397cc" rx="17.5" ry="17.5"/><path fill="#6d83b5" d="M67.5,123.5A17.52,17.52,0,0,0,50,141V408.5H464.5A17.52,17.52,0,0,0,482,391V123.5Z"/><rect width="462" height="315" y="73.5" fill="#3d58ff" rx="17.5" ry="17.5"/><path fill="#3146cc" d="M20,111A17.52,17.52,0,0,1,37.5,93.5H462V91a17.52,17.52,0,0,0-17.5-17.5H17.5A17.52,17.52,0,0,0,0,91V371a17.52,17.52,0,0,0,17.5,17.5H20Z"/><rect width="145" height="55" x="287" y="303.5" fill="#3146cc" rx="17.5" ry="17.5"/><rect width="145" height="55" x="277" y="293.5" fill="#f65d6d" rx="17.5" ry="17.5"/><path fill="#e25065" d="M287,341V321a17.52,17.52,0,0,1,17.5-17.5h110a17.43,17.43,0,0,1,6.31,1.19A17.54,17.54,0,0,0,404.5,293.5h-110A17.52,17.52,0,0,0,277,311v20a17.54,17.54,0,0,0,11.19,16.31A17.43,17.43,0,0,1,287,341Z"/><path fill="#fff" d="M462,123.5V91a17.52,17.52,0,0,0-17.5-17.5H17.5A17.52,17.52,0,0,0,0,91v32.5Z"/><path fill="#e8efff" d="M20,111A17.52,17.52,0,0,1,37.5,93.5H462V91a17.52,17.52,0,0,0-17.5-17.5H17.5A17.52,17.52,0,0,0,0,91v32.5H20Z"/><path fill="#f65d6d" d="M190.45 254.33A7.5 7.5 0 01185 241.65l22.1-23.15L185 195.35A7.5 7.5 0 11195.88 185l27.05 28.33a7.52 7.52 0 010 10.36L195.88 252A7.45 7.45 0 01190.45 254.33zM74.55 254.33A7.45 7.45 0 0169.12 252L42.07 223.68a7.52 7.52 0 010-10.36L69.12 185A7.5 7.5 0 1180 195.35L57.87 218.5 80 241.65a7.5 7.5 0 01-5.42 12.68zM146 268.5a7.49 7.49 0 01-7.14-5.23l-27-85a7.5 7.5 0 1114.29-4.54l27 85A7.49 7.49 0 01146 268.5z"/><path fill="#fff" d="M281 178.5H267.5a7.5 7.5 0 010-15H281a7.5 7.5 0 010 15zM244.5 348.5H47.5a7.5 7.5 0 010-15h197a7.5 7.5 0 010 15zM244.5 308.5H93a7.5 7.5 0 010-15H244.5a7.5 7.5 0 010 15zM54.5 308.5h-7a7.5 7.5 0 010-15h7a7.5 7.5 0 010 15zM414.5 178.5H316a7.5 7.5 0 010-15h98.5a7.5 7.5 0 010 15zM414.5 218.5h-147a7.5 7.5 0 010-15h147a7.5 7.5 0 010 15zM414.5 263.5h-147a7.5 7.5 0 010-15h147a7.5 7.5 0 010 15z"/><path fill="#8397cc" d="M384.5 106h-10a7.5 7.5 0 010-15h10a7.5 7.5 0 010 15zM424.5 106h-10a7.5 7.5 0 010-15h10a7.5 7.5 0 010 15z"/></svg>